<svg width="176" height="164" viewBox="0 0 176 164" fill="none" xmlns="http://www.w3.org/2000/svg">
<path d="M168.859 57H111.398L93.9375 4.89062C93.0781 2.35156 90.6953 0.75 88 0.75C85.3047 0.75 82.9219 2.35156 82.0625 4.89062L64.6016 57H6.75C3.3125 57 0.5 59.8125 0.5 63.25C0.5 63.6016 0.539062 63.9922 0.617187 64.3047C0.695312 65.6719 1.32031 67.1953 3.23438 68.7188L50.4609 102L32.3359 154.695C31.4375 157.234 32.3359 160.086 34.4844 161.727C35.6172 162.547 36.6719 163.25 38 163.25C39.2891 163.25 40.8125 162.586 41.9062 161.844L88 128.992L134.094 161.844C135.187 162.625 136.711 163.25 138 163.25C139.328 163.25 140.383 162.586 141.477 161.727C143.664 160.086 144.523 157.273 143.625 154.695L125.5 102L172.336 68.4062L173.469 67.4297C174.484 66.3359 175.5 64.8516 175.5 63.25C175.5 59.8125 172.297 57 168.859 57ZM119.172 93.1328C115.266 95.9453 113.625 101.023 115.188 105.555L126.945 139.812C127.453 141.258 125.813 142.469 124.563 141.609L94.3281 120.047C92.4141 118.68 90.1875 118.016 87.9609 118.016C85.7344 118.016 83.5078 118.68 81.6328 120.047L51.3984 141.57C50.1484 142.469 48.5078 141.219 49.0156 139.773L60.7734 105.516C62.3359 100.906 60.6953 95.8281 56.75 93.0156L25.1094 70.7109C23.8594 69.8516 24.4844 67.8594 26.0078 67.8594H64.5625C69.25 67.8594 73.4297 64.8516 74.9141 60.3984L86.4766 25.9453C86.9453 24.5391 88.9766 24.5391 89.4453 25.9453L101.008 60.3984C102.492 64.8516 106.672 67.8594 111.359 67.8594H149.367C150.891 67.8594 151.516 69.8125 150.266 70.6719L119.172 93.1328Z" fill="#E6C337"/>
</svg>
