<svg width="36" height="125" viewBox="0 0 36 125" fill="none" xmlns="http://www.w3.org/2000/svg">
<path d="M18 0L22.0413 6.39948L35.119 6.39948L24.5389 10.3546L28.5801 16.754L18 12.799L7.41987 16.754L11.4611 10.3546L0.880983 6.39948L13.9587 6.39948L18 0Z" fill="#D9D9D9"/>
<path d="M18 26.5228L22.0413 32.9223L35.119 32.9223L24.5389 36.8774L28.5801 43.2769L18 39.3218L7.41987 43.2769L11.4611 36.8774L0.880983 32.9223L13.9587 32.9223L18 26.5228Z" fill="#D9D9D9"/>
<path d="M18 53.0457L22.0413 59.4451L35.119 59.4451L24.5389 63.4002L28.5801 69.7997L18 65.8446L7.41987 69.7997L11.4611 63.4002L0.880983 59.4451L13.9587 59.4451L18 53.0457Z" fill="#D9D9D9"/>
<path d="M18 79.5685L22.0413 85.968L35.119 85.968L24.5389 89.9231L28.5801 96.3225L18 92.3674L7.41987 96.3225L11.4611 89.9231L0.880983 85.968L13.9587 85.968L18 79.5685Z" fill="#D9D9D9"/>
<path d="M18 106.091L22.0413 112.491L35.119 112.491L24.5389 116.446L28.5801 122.845L18 118.89L7.41987 122.845L11.4611 116.446L0.880983 112.491L13.9587 112.491L18 106.091Z" fill="#D9D9D9"/>
</svg>
